<svg width="635" height="169" viewBox="0 0 635 169" fill="none" xmlns="http://www.w3.org/2000/svg">
<path d="M102.432 111.384C103.536 111.384 104.432 112.279 104.432 113.384V121C104.432 122.105 103.536 123 102.432 123H59.1035C57.9989 123 57.1035 122.105 57.1035 121V56.84C57.1035 55.7354 57.9989 54.84 59.1035 54.84H101.568C102.672 54.84 103.568 55.7354 103.568 56.84V64.456C103.568 65.5605 102.672 66.456 101.568 66.456H72.3515C71.2469 66.456 70.3515 67.3514 70.3515 68.456V80.872C70.3515 81.9765 71.2469 82.872 72.3515 82.872H97.0555C98.1601 82.872 99.0555 83.7674 99.0555 84.872V91.624C99.0555 92.7285 98.1601 93.624 97.0555 93.624H72.3515C71.2469 93.624 70.3515 94.5194 70.3515 95.624V109.384C70.3515 110.489 71.2469 111.384 72.3515 111.384H102.432Z" fill="#0082FA"/>
<path d="M127.104 123C125.999 123 125.104 122.105 125.104 121V56.84C125.104 55.7354 125.999 54.84 127.104 54.84H149.872C157.296 54.84 163.504 56.376 168.496 59.448C173.488 62.456 177.232 66.552 179.728 71.736C182.224 76.856 183.472 82.552 183.472 88.824C183.472 95.736 182.096 101.752 179.344 106.872C176.592 111.992 172.688 115.96 167.632 118.776C162.64 121.592 156.72 123 149.872 123H127.104ZM170.128 88.824C170.128 84.408 169.328 80.536 167.728 77.208C166.128 73.816 163.824 71.192 160.816 69.336C157.808 67.416 154.16 66.456 149.872 66.456H140.352C139.247 66.456 138.352 67.3514 138.352 68.456V109.384C138.352 110.489 139.247 111.384 140.352 111.384H149.872C154.224 111.384 157.904 110.424 160.912 108.504C163.92 106.52 166.192 103.832 167.728 100.44C169.328 96.984 170.128 93.112 170.128 88.824Z" fill="#0082FA"/>
<path d="M348.991 70.3471C348.352 71.5201 346.693 71.8241 345.571 71.0991C345.457 71.025 345.338 70.9493 345.216 70.872C344.064 70.104 342.624 69.368 340.896 68.664C339.232 67.96 337.408 67.352 335.424 66.84C333.44 66.264 331.424 65.976 329.376 65.976C325.792 65.976 323.072 66.648 321.216 67.992C319.424 69.336 318.528 71.224 318.528 73.656C318.528 75.512 319.104 76.984 320.256 78.072C321.408 79.16 323.136 80.088 325.44 80.856C327.744 81.624 330.624 82.456 334.08 83.352C338.56 84.44 342.432 85.784 345.696 87.384C349.024 88.92 351.552 90.968 353.28 93.528C355.072 96.024 355.968 99.352 355.968 103.512C355.968 107.16 355.296 110.296 353.952 112.92C352.608 115.48 350.752 117.56 348.384 119.16C346.016 120.76 343.328 121.944 340.32 122.712C337.312 123.416 334.112 123.768 330.72 123.768C327.328 123.768 323.936 123.416 320.544 122.712C317.152 122.008 313.888 121.016 310.752 119.736C308.178 118.633 305.776 117.357 303.547 115.909C302.712 115.367 302.449 114.278 302.903 113.392L306.715 105.955C307.334 104.748 309.007 104.436 310.125 105.205C310.408 105.399 310.713 105.603 311.04 105.816C312.512 106.712 314.304 107.64 316.416 108.6C318.528 109.496 320.832 110.264 323.328 110.904C325.824 111.544 328.352 111.864 330.912 111.864C334.496 111.864 337.216 111.256 339.072 110.04C340.928 108.824 341.856 107.096 341.856 104.856C341.856 102.808 341.12 101.208 339.648 100.056C338.176 98.904 336.128 97.912 333.504 97.08C330.88 96.184 327.776 95.224 324.192 94.2C319.904 92.984 316.32 91.64 313.44 90.168C310.56 88.632 308.416 86.712 307.008 84.408C305.6 82.104 304.896 79.224 304.896 75.768C304.896 71.096 305.984 67.192 308.16 64.056C310.4 60.856 313.408 58.456 317.184 56.856C320.96 55.192 325.152 54.36 329.76 54.36C332.96 54.36 335.968 54.712 338.784 55.416C341.664 56.12 344.352 57.048 346.848 58.2C348.724 59.0659 350.455 59.986 352.042 60.9604C352.919 61.4992 353.192 62.6339 352.699 63.5383L348.991 70.3471Z" fill="#3DB166"/>
<path d="M410.104 123C408.999 123 408.104 122.105 408.104 121V56.84C408.104 55.7354 408.999 54.84 410.104 54.84H438.248C441.384 54.84 444.264 55.48 446.888 56.76C449.576 58.04 451.88 59.768 453.8 61.944C455.784 64.12 457.288 66.552 458.312 69.24C459.4 71.928 459.944 74.68 459.944 77.496C459.944 80.376 459.432 83.16 458.408 85.848C457.448 88.472 456.04 90.776 454.184 92.76C452.853 94.1827 451.357 95.375 449.697 96.337C448.649 96.9441 448.214 98.2891 448.843 99.3244L461.365 119.963C462.173 121.295 461.214 123 459.655 123H449.735C449.039 123 448.394 122.639 448.03 122.046L435.185 101.106C434.821 100.513 434.176 100.152 433.48 100.152H423.352C422.247 100.152 421.352 101.047 421.352 102.152V121C421.352 122.105 420.456 123 419.352 123H410.104ZM421.352 86.536C421.352 87.6405 422.247 88.536 423.352 88.536H437.96C439.624 88.536 441.096 88.056 442.376 87.096C443.656 86.072 444.68 84.728 445.448 83.064C446.216 81.4 446.6 79.544 446.6 77.496C446.6 75.32 446.152 73.432 445.256 71.832C444.36 70.168 443.208 68.856 441.8 67.896C440.456 66.936 438.984 66.456 437.384 66.456H423.352C422.247 66.456 421.352 67.3514 421.352 68.456V86.536Z" fill="#3DB166"/>
<path d="M523.432 111.384C524.536 111.384 525.432 112.279 525.432 113.384V121C525.432 122.105 524.536 123 523.432 123H480.104C478.999 123 478.104 122.105 478.104 121V56.84C478.104 55.7354 478.999 54.84 480.104 54.84H522.568C523.672 54.84 524.568 55.7354 524.568 56.84V64.456C524.568 65.5605 523.672 66.456 522.568 66.456H493.352C492.247 66.456 491.352 67.3514 491.352 68.456V80.872C491.352 81.9765 492.247 82.872 493.352 82.872H518.056C519.16 82.872 520.056 83.7674 520.056 84.872V91.624C520.056 92.7285 519.16 93.624 518.056 93.624H493.352C492.247 93.624 491.352 94.5194 491.352 95.624V109.384C491.352 110.489 492.247 111.384 493.352 111.384H523.432Z" fill="#3DB166"/>
<path d="M582.991 70.3471C582.352 71.5201 580.693 71.8241 579.571 71.0991C579.457 71.025 579.338 70.9493 579.216 70.872C578.064 70.104 576.624 69.368 574.896 68.664C573.232 67.96 571.408 67.352 569.424 66.84C567.44 66.264 565.424 65.976 563.376 65.976C559.792 65.976 557.072 66.648 555.216 67.992C553.424 69.336 552.528 71.224 552.528 73.656C552.528 75.512 553.104 76.984 554.256 78.072C555.408 79.16 557.136 80.088 559.44 80.856C561.744 81.624 564.624 82.456 568.08 83.352C572.56 84.44 576.432 85.784 579.696 87.384C583.024 88.92 585.552 90.968 587.28 93.528C589.072 96.024 589.968 99.352 589.968 103.512C589.968 107.16 589.296 110.296 587.952 112.92C586.608 115.48 584.752 117.56 582.384 119.16C580.016 120.76 577.328 121.944 574.32 122.712C571.312 123.416 568.112 123.768 564.72 123.768C561.328 123.768 557.936 123.416 554.544 122.712C551.152 122.008 547.888 121.016 544.752 119.736C542.178 118.633 539.776 117.357 537.547 115.909C536.712 115.367 536.449 114.278 536.903 113.392L540.715 105.955C541.334 104.748 543.007 104.436 544.125 105.205C544.408 105.399 544.713 105.603 545.04 105.816C546.512 106.712 548.304 107.64 550.416 108.6C552.528 109.496 554.832 110.264 557.328 110.904C559.824 111.544 562.352 111.864 564.912 111.864C568.496 111.864 571.216 111.256 573.072 110.04C574.928 108.824 575.856 107.096 575.856 104.856C575.856 102.808 575.12 101.208 573.648 100.056C572.176 98.904 570.128 97.912 567.504 97.08C564.88 96.184 561.776 95.224 558.192 94.2C553.904 92.984 550.32 91.64 547.44 90.168C544.56 88.632 542.416 86.712 541.008 84.408C539.6 82.104 538.896 79.224 538.896 75.768C538.896 71.096 539.984 67.192 542.16 64.056C544.4 60.856 547.408 58.456 551.184 56.856C554.96 55.192 559.152 54.36 563.76 54.36C566.96 54.36 569.968 54.712 572.784 55.416C575.664 56.12 578.352 57.048 580.848 58.2C582.724 59.0659 584.455 59.986 586.042 60.9604C586.919 61.4992 587.192 62.6339 586.699 63.5383L582.991 70.3471Z" fill="#3DB166"/>
<g filter="url(#filter0_d_3_3)">
<path d="M240.84 47.1519L189.282 68.1833C188.45 68.5224 188.452 69.7004 189.285 70.0365L240.843 90.851C241.08 90.9467 241.345 90.948 241.583 90.8546L294.639 70.0401C295.484 69.7087 295.486 68.5139 294.643 68.1795L241.586 47.1482C241.346 47.0531 241.079 47.0544 240.84 47.1519Z" fill="#0082FA"/>
<path d="M240.84 47.1519L189.282 68.1833C188.45 68.5224 188.452 69.7004 189.285 70.0365L240.843 90.851C241.08 90.9467 241.345 90.948 241.583 90.8546L294.639 70.0401C295.484 69.7087 295.486 68.5139 294.643 68.1795L241.586 47.1482C241.346 47.0531 241.079 47.0544 240.84 47.1519Z" stroke="#0082FA" stroke-width="3"/>
</g>
<g filter="url(#filter1_d_3_3)">
<path d="M216 89V112.129C216 112.778 216.418 113.354 217.035 113.555L243.998 122.336C244.323 122.442 244.674 122.434 244.994 122.313L268.031 113.585C268.614 113.364 269 112.805 269 112.182V90.0645" stroke="#3DB166" stroke-width="11"/>
</g>
<path d="M284.5 106.356L280.044 110.118C279.688 110.419 279.901 111 280.367 111H288.633C289.099 111 289.312 110.419 288.956 110.118L284.5 106.356ZM284.5 106.356V78" stroke="#3DB166" stroke-width="3"/>
<path d="M377 124.16C375.895 124.16 375 123.265 375 122.16V58C375 56.8954 375.895 56 377 56H386.248C387.353 56 388.248 56.8954 388.248 58V122.16C388.248 123.265 387.353 124.16 386.248 124.16H377Z" fill="#3DB166"/>
<defs>
<filter id="filter0_d_3_3" x="183.159" y="45.5778" width="117.615" height="54.8459" filterUnits="userSpaceOnUse" color-interpolation-filters="sRGB">
<feFlood flood-opacity="0" result="BackgroundImageFix"/>
<feColorMatrix in="SourceAlpha" type="matrix" values="0 0 0 0 0 0 0 0 0 0 0 0 0 0 0 0 0 0 127 0" result="hardAlpha"/>
<feOffset dy="4"/>
<feGaussianBlur stdDeviation="2"/>
<feComposite in2="hardAlpha" operator="out"/>
<feColorMatrix type="matrix" values="0 0 0 0 0 0 0 0 0 0 0 0 0 0 0 0 0 0 0.12 0"/>
<feBlend mode="normal" in2="BackgroundImageFix" result="effect1_dropShadow_3_3"/>
<feBlend mode="normal" in="SourceGraphic" in2="effect1_dropShadow_3_3" result="shape"/>
</filter>
<filter id="filter1_d_3_3" x="206.5" y="89" width="72" height="46.9102" filterUnits="userSpaceOnUse" color-interpolation-filters="sRGB">
<feFlood flood-opacity="0" result="BackgroundImageFix"/>
<feColorMatrix in="SourceAlpha" type="matrix" values="0 0 0 0 0 0 0 0 0 0 0 0 0 0 0 0 0 0 127 0" result="hardAlpha"/>
<feOffset dy="4"/>
<feGaussianBlur stdDeviation="2"/>
<feComposite in2="hardAlpha" operator="out"/>
<feColorMatrix type="matrix" values="0 0 0 0 0 0 0 0 0 0 0 0 0 0 0 0 0 0 0.17 0"/>
<feBlend mode="normal" in2="BackgroundImageFix" result="effect1_dropShadow_3_3"/>
<feBlend mode="normal" in="SourceGraphic" in2="effect1_dropShadow_3_3" result="shape"/>
</filter>
</defs>
</svg>
